# xmcd CD database file
#
# Track frame offsets:
#	150
#	27194
#	41591
#	61419
#	86648
#	108392
#	150503
#	167495
#	179212
#	198015
#	210057
#
# Disc length: 3114 seconds
#
# Revision: 0
# Processed by: cddbd v1.5.2PL0 Copyright (c) Steve Scherf et al.
# Submitted via: CDex 1.70beta2
#
DISCID=840c280b
DTITLE=Cassavettes - It's Gonna Change
DYEAR=2006
DGENRE=Blues
TTITLE0=The Nadir
TTITLE1=Debts
TTITLE2=On Our Own
TTITLE3=Trouble From the Start
TTITLE4=Seasons
TTITLE5=Lightning In A Bottle
TTITLE6=It's Gonna Be Alright
TTITLE7=On The Lam
TTITLE8=The Devil's Arms
TTITLE9=Set Free
TTITLE10=Shine A Light
EXTD=YEAR: 2006
EXTT0=
EXTT1=
EXTT2=
EXTT3=
EXTT4=
EXTT5=
EXTT6=
EXTT7=
EXTT8=
EXTT9=
EXTT10=
PLAYORDER=
